<svg width="13" height="12" viewBox="0 0 13 12" fill="none" xmlns="http://www.w3.org/2000/svg">
<path d="M9.53635 2.73C9.4176 2.73 9.30152 2.76519 9.20278 2.83112C9.10404 2.89705 9.02708 2.99075 8.98164 3.10039C8.9362 3.21003 8.92431 3.33067 8.94747 3.44705C8.97064 3.56344 9.02782 3.67035 9.11179 3.75426C9.19576 3.83818 9.30275 3.89532 9.41922 3.91847C9.53569 3.94162 9.65641 3.92974 9.76612 3.88433C9.87584 3.83892 9.96961 3.76201 10.0356 3.66334C10.1016 3.56467 10.1368 3.44867 10.1368 3.33C10.1368 3.17087 10.0735 3.01826 9.96091 2.90574C9.84831 2.79321 9.69559 2.73 9.53635 2.73ZM11.838 3.94C11.8282 3.52515 11.7505 3.1147 11.6078 2.725C11.4806 2.39157 11.2826 2.08964 11.0274 1.84C10.7796 1.58371 10.4768 1.38709 10.1418 1.265C9.75283 1.11808 9.34164 1.0386 8.92593 1.03C8.39556 1 8.22544 1 6.8645 1C5.50355 1 5.33343 1 4.80307 1.03C4.38735 1.0386 3.97616 1.11808 3.58722 1.265C3.25283 1.38832 2.95025 1.58478 2.70161 1.84C2.44514 2.08759 2.24838 2.39022 2.12621 2.725C1.97919 3.11367 1.89965 3.52458 1.89104 3.94C1.86102 4.47 1.86102 4.64 1.86102 6C1.86102 7.36 1.86102 7.53 1.89104 8.06C1.89965 8.47542 1.97919 8.88633 2.12621 9.275C2.24838 9.60978 2.44514 9.91241 2.70161 10.16C2.95025 10.4152 3.25283 10.6117 3.58722 10.735C3.97616 10.8819 4.38735 10.9614 4.80307 10.97C5.33343 11 5.50355 11 6.8645 11C8.22544 11 8.39556 11 8.92593 10.97C9.34164 10.9614 9.75283 10.8819 10.1418 10.735C10.4768 10.6129 10.7796 10.4163 11.0274 10.16C11.2837 9.91129 11.4819 9.6091 11.6078 9.275C11.7505 8.8853 11.8282 8.47485 11.838 8.06C11.838 7.53 11.868 7.36 11.868 6C11.868 4.64 11.868 4.47 11.838 3.94ZM10.9373 8C10.9337 8.31739 10.8762 8.63185 10.7672 8.93C10.6873 9.1476 10.559 9.34421 10.3919 9.505C10.2297 9.67025 10.0333 9.79822 9.81655 9.88C9.51819 9.98888 9.20351 10.0464 8.8859 10.05C8.38555 10.075 8.20043 10.08 6.88451 10.08C5.5686 10.08 5.38347 10.08 4.88312 10.05C4.55334 10.0562 4.22496 10.0054 3.91245 9.9C3.70519 9.81404 3.51785 9.68639 3.36207 9.525C3.19599 9.36437 3.06928 9.1676 2.99181 8.95C2.86965 8.64758 2.8019 8.32597 2.79167 8C2.79167 7.5 2.76165 7.315 2.76165 6C2.76165 4.685 2.76165 4.5 2.79167 4C2.79391 3.67553 2.85319 3.35397 2.96679 3.05C3.05488 2.83896 3.19008 2.65083 3.36207 2.5C3.51408 2.32808 3.70195 2.19155 3.91245 2.1C4.21743 1.99002 4.53888 1.93254 4.86311 1.93C5.36346 1.93 5.54858 1.9 6.8645 1.9C8.18041 1.9 8.36554 1.9 8.86589 1.93C9.18349 1.93364 9.49818 1.99112 9.79653 2.1C10.0239 2.18433 10.228 2.32142 10.3919 2.5C10.5559 2.65359 10.684 2.84137 10.7672 3.05C10.8784 3.35447 10.936 3.67589 10.9373 4C10.9623 4.5 10.9673 4.685 10.9673 6C10.9673 7.315 10.9623 7.5 10.9373 8ZM6.8645 3.435C6.35705 3.43599 5.86128 3.58726 5.43984 3.86971C5.01839 4.15216 4.69018 4.5531 4.49667 5.02188C4.30316 5.49066 4.25305 6.00623 4.35265 6.50346C4.45225 7.0007 4.69711 7.45727 5.05628 7.81549C5.41545 8.17371 5.87281 8.41751 6.37058 8.51607C6.86835 8.61464 7.38419 8.56355 7.85292 8.36927C8.32165 8.17498 8.72223 7.84622 9.00405 7.42452C9.28587 7.00281 9.43628 6.5071 9.43628 6C9.43695 5.66255 9.37084 5.3283 9.24177 5.01648C9.1127 4.70465 8.92321 4.4214 8.6842 4.18303C8.44519 3.94465 8.16137 3.75584 7.84908 3.62746C7.53679 3.49909 7.20218 3.43368 6.8645 3.435ZM6.8645 7.665C6.53496 7.665 6.21283 7.56735 5.93883 7.3844C5.66483 7.20144 5.45128 6.94141 5.32517 6.63717C5.19906 6.33293 5.16607 5.99815 5.23036 5.67517C5.29464 5.3522 5.45333 5.05552 5.68635 4.82267C5.91936 4.58981 6.21624 4.43124 6.53945 4.36699C6.86265 4.30275 7.19766 4.33572 7.50211 4.46174C7.80656 4.58776 8.06678 4.80117 8.24986 5.07498C8.43294 5.34878 8.53065 5.67069 8.53065 6C8.53065 6.21865 8.48756 6.43516 8.40383 6.63717C8.32009 6.83918 8.19737 7.02272 8.04265 7.17733C7.88793 7.33194 7.70426 7.45459 7.50211 7.53826C7.29996 7.62193 7.0833 7.665 6.8645 7.665Z" fill="white"/>
</svg>
