<svg width="13" height="12" viewBox="0 0 13 12" fill="none" xmlns="http://www.w3.org/2000/svg">
<g clip-path="url(#clip0_13_573)">
<path d="M9.63319 4.49956C9.1853 4.49948 8.74437 4.61028 8.3498 4.82206C8.31376 4.72723 8.24971 4.64559 8.16615 4.58799C8.08259 4.53039 7.98348 4.49954 7.88197 4.49956H5.88058C5.74788 4.49956 5.62061 4.55224 5.52678 4.646C5.43295 4.73977 5.38023 4.86695 5.38023 4.99956V10.9996C5.38023 11.1322 5.43295 11.2593 5.52678 11.3531C5.62061 11.4469 5.74788 11.4996 5.88058 11.4996H7.88197C8.01467 11.4996 8.14194 11.4469 8.23577 11.3531C8.3296 11.2593 8.38232 11.1322 8.38232 10.9996V8.24956C8.38232 8.11695 8.43503 7.98977 8.52887 7.89601C8.6227 7.80224 8.74996 7.74956 8.88267 7.74956C9.01537 7.74956 9.14263 7.80224 9.23646 7.89601C9.3303 7.98977 9.38301 8.11695 9.38301 8.24956V10.9996C9.38301 11.1322 9.43573 11.2593 9.52956 11.3531C9.62339 11.4469 9.75066 11.4996 9.88336 11.4996H11.8848C12.0175 11.4996 12.1447 11.4469 12.2385 11.3531C12.3324 11.2593 12.3851 11.1322 12.3851 10.9996V7.24956C12.3842 6.5205 12.0939 5.82156 11.5781 5.30604C11.0622 4.79051 10.3628 4.50048 9.63319 4.49956ZM11.3844 10.4996H10.3837V8.24956C10.3837 7.85173 10.2256 7.4702 9.94406 7.1889C9.66256 6.90759 9.28077 6.74956 8.88267 6.74956C8.48456 6.74956 8.10277 6.90759 7.82127 7.1889C7.53977 7.4702 7.38162 7.85173 7.38162 8.24956V10.4996H6.38093V5.49956H7.38162V5.85106C7.38157 5.9547 7.41375 6.05579 7.47371 6.14035C7.53366 6.22491 7.61843 6.28877 7.71629 6.32309C7.81415 6.3574 7.92026 6.36049 8.01995 6.33191C8.11963 6.30333 8.20797 6.2445 8.27274 6.16356C8.49736 5.87861 8.80542 5.67087 9.1539 5.56933C9.50238 5.46779 9.87389 5.47753 10.2166 5.59718C10.5592 5.71683 10.856 5.94043 11.0653 6.23675C11.2747 6.53307 11.3862 6.88732 11.3844 7.25006V10.4996ZM4.37954 4.49956H2.37815C2.24545 4.49956 2.11818 4.55224 2.02435 4.646C1.93052 4.73977 1.8778 4.86695 1.8778 4.99956V10.9996C1.8778 11.1322 1.93052 11.2593 2.02435 11.3531C2.11818 11.4469 2.24545 11.4996 2.37815 11.4996H4.37954C4.51224 11.4996 4.6395 11.4469 4.73334 11.3531C4.82717 11.2593 4.87988 11.1322 4.87988 10.9996V4.99956C4.87988 4.86695 4.82717 4.73977 4.73334 4.646C4.6395 4.55224 4.51224 4.49956 4.37954 4.49956ZM3.87919 10.4996H2.8785V5.49956H3.87919V10.4996ZM3.38635 0.771059C3.16724 0.757718 2.94771 0.789081 2.74112 0.863238C2.53453 0.937394 2.34521 1.05279 2.18468 1.20241C2.02415 1.35202 1.89577 1.53272 1.80735 1.7335C1.71894 1.93428 1.67235 2.15095 1.67041 2.3703C1.66847 2.58965 1.71123 2.8071 1.79608 3.00941C1.88093 3.21172 2.0061 3.39466 2.16396 3.54708C2.32183 3.6995 2.50908 3.81822 2.71433 3.89601C2.91958 3.9738 3.13852 4.00903 3.35783 3.99956H3.37184C3.59107 4.01207 3.81055 3.97986 4.01692 3.90486C4.22329 3.82987 4.41221 3.71368 4.57219 3.56336C4.73217 3.41305 4.85984 3.23176 4.94744 3.03054C5.03504 2.82932 5.08072 2.61238 5.08171 2.39295C5.0827 2.17352 5.03896 1.95618 4.95318 1.75418C4.86739 1.55219 4.74135 1.36976 4.58273 1.21801C4.42411 1.06627 4.23624 0.948381 4.03055 0.87154C3.82487 0.794699 3.60568 0.760511 3.38635 0.771059ZM3.37184 2.99956H3.35783C3.27129 3.01012 3.18349 3.00206 3.10033 2.97593C3.01716 2.94979 2.94055 2.90619 2.87563 2.84804C2.81071 2.78989 2.75898 2.71854 2.72393 2.63877C2.68887 2.55901 2.67128 2.47267 2.67235 2.38556C2.67235 2.01206 2.95255 1.77106 3.38635 1.77106C3.47371 1.75957 3.56253 1.7669 3.64683 1.79256C3.73112 1.81822 3.80894 1.86161 3.87506 1.91982C3.94118 1.97804 3.99407 2.04972 4.03016 2.13005C4.06626 2.21038 4.08473 2.2975 4.08433 2.38556C4.08433 2.75856 3.80414 2.99956 3.37134 2.99956H3.37184Z" fill="white"/>
</g>
<defs>
<clipPath id="clip0_13_573">
<rect width="12.0083" height="12" fill="white" transform="translate(0.877686)"/>
</clipPath>
</defs>
</svg>
